<?xml version="1.0" encoding="UTF-8"?>
<svg id="Calque_1" xmlns="http://www.w3.org/2000/svg" version="1.1" viewBox="0 0 283.46 141.73">
  <!-- Generator: Adobe Illustrator 29.3.1, SVG Export Plug-In . SVG Version: 2.1.0 Build 151)  -->
  <defs>
    <style>
      .st0 {
        fill: #13100d;
      }
    </style>
  </defs>
  <rect class="st0" x="37.59" y="47.5" width="9.45" height="47.24" rx="2.24" ry="2.24"/>
  <rect class="st0" x="94.28" y="47.5" width="9.45" height="47.24" rx="2.24" ry="2.24"/>
  <rect class="st0" x="47.03" y="38.05" width="47.24" height="9.45" rx="2.24" ry="2.24"/>
  <rect class="st0" x="47.03" y="94.74" width="47.24" height="9.45" rx="2.24" ry="2.24"/>
  <path class="st0" d="M132.58,66.56c-.65.73-1.56,1.09-2.74,1.09-1.04,0-1.85-.26-2.42-.78-.57-.52-.95-1.25-1.16-2.18h-3.71c.23,1.66.99,2.97,2.3,3.93,1.3.96,2.97,1.45,4.99,1.45,2.32,0,4.14-.63,5.48-1.89,1.34-1.26,2.01-2.98,2.01-5.16v-15.49h-3l-.56,2.43c-.4-.7-.96-1.3-1.69-1.8-.95-.65-2.11-.97-3.47-.97-1.27,0-2.42.31-3.44.94-1.02.62-1.84,1.54-2.45,2.76-.61,1.22-.92,2.69-.92,4.41s.28,3.18.83,4.38c.56,1.19,1.32,2.09,2.3,2.69.98.6,2.08.9,3.3.9,1.41,0,2.59-.33,3.54-.99.73-.51,1.32-1.11,1.77-1.82v3.01c0,1.34-.32,2.37-.97,3.1ZM133.48,57.88c-.34.86-.86,1.58-1.57,2.16-.7.58-1.49.87-2.35.87-1.18,0-2.09-.48-2.72-1.43-.64-.95-.95-2.35-.95-4.19s.33-3.28.99-4.26c.66-.98,1.59-1.46,2.79-1.46.93,0,1.74.28,2.42.85.68.57,1.15,1.28,1.4,2.15v5.31Z"/>
  <path class="st0" d="M153.16,58.42c-.3.89-.74,1.61-1.33,2.16-.59.56-1.37.83-2.35.83-.86,0-1.58-.25-2.16-.75-.58-.5-1-1.2-1.28-2.09-.23-.77-.36-1.64-.39-2.61h11.05c.02-.27.03-.7.03-1.29,0-1.5-.31-2.81-.92-3.95-.61-1.13-1.48-2.01-2.59-2.62-1.11-.61-2.37-.92-3.78-.92-1.52,0-2.87.34-4.05,1.02-1.18.68-2.1,1.65-2.76,2.9-.66,1.25-.99,2.71-.99,4.39s.33,3.11.99,4.36c.66,1.25,1.58,2.22,2.76,2.91,1.18.69,2.53,1.04,4.05,1.04,1.7,0,3.14-.41,4.31-1.24,1.17-.83,1.99-1.94,2.47-3.32l-3.07-.82ZM146.04,52.36c.27-.91.7-1.62,1.28-2.13.58-.51,1.3-.77,2.16-.77,1.16,0,2.03.47,2.61,1.4.53.86.81,1.87.85,3.03h-7.21c.07-.55.17-1.06.31-1.53Z"/>
  <path class="st0" d="M175.3,63.46v-10.73c0-1.75-.41-3.11-1.24-4.09-.83-.98-2.07-1.46-3.73-1.46-1.25,0-2.37.32-3.37.95-.88.56-1.57,1.25-2.08,2.06v-2.68h-3.78v15.94h3.88v-10.73c.36-.79.9-1.45,1.6-1.97.7-.52,1.44-.78,2.21-.78.82,0,1.45.28,1.91.83.45.56.68,1.39.68,2.5v10.15h3.92Z"/>
  <path class="st0" d="M193.57,59.24l-3.06-.82c-.3.89-.74,1.61-1.33,2.16-.59.56-1.37.83-2.35.83-.86,0-1.58-.25-2.16-.75-.58-.5-1-1.2-1.28-2.09-.23-.77-.36-1.64-.39-2.61h11.05c.02-.27.03-.7.03-1.29,0-1.5-.31-2.81-.92-3.95-.61-1.13-1.48-2.01-2.59-2.62-1.11-.61-2.37-.92-3.78-.92-1.52,0-2.87.34-4.05,1.02-1.18.68-2.1,1.65-2.76,2.9-.66,1.25-.99,2.71-.99,4.39s.33,3.11.99,4.36c.66,1.25,1.58,2.22,2.76,2.91,1.18.69,2.53,1.04,4.05,1.04,1.7,0,3.14-.41,4.31-1.24,1.17-.83,1.99-1.94,2.47-3.32ZM183.39,52.36c.27-.91.7-1.62,1.28-2.13.58-.51,1.3-.77,2.16-.77,1.16,0,2.03.47,2.6,1.4.53.86.81,1.87.85,3.03h-7.21c.07-.55.17-1.06.31-1.53Z"/>
  <path class="st0" d="M207.5,50.59v-3.3h-.72c-1,0-1.91.3-2.72.89-.75.54-1.36,1.28-1.84,2.2v-2.85h-3.78v15.94h3.88v-10.49c.43-.84.99-1.48,1.67-1.91.68-.43,1.41-.65,2.18-.65.52,0,.96.06,1.33.17Z"/>
  <path class="st0" d="M218.26,62.76c.82-.52,1.46-1.14,1.92-1.85.04.77.13,1.62.29,2.55h3.58c-.2-2.02-.31-3.62-.31-4.8v-6.16c0-1.73-.54-3.03-1.63-3.92-1.09-.89-2.57-1.33-4.43-1.33-1.63,0-3.03.35-4.19,1.06-1.16.7-1.98,1.74-2.45,3.1l3.2.78c.27-.77.69-1.4,1.26-1.87.57-.48,1.24-.72,2.01-.72.82,0,1.44.23,1.87.7.43.47.65,1.17.65,2.13v1.43c-1.2.05-2.41.14-3.61.27-1.93.23-3.43.75-4.5,1.57-1.07.82-1.6,2.01-1.6,3.58,0,1.32.43,2.38,1.29,3.18.86.81,2,1.21,3.41,1.21,1.2,0,2.28-.3,3.24-.9ZM214,59.03c0-.77.26-1.39.78-1.86.52-.47,1.27-.78,2.25-.94,1-.16,2-.26,3-.31v2.93c-.39.7-.91,1.27-1.58,1.7-.67.43-1.39.65-2.16.65-.7,0-1.26-.19-1.67-.58-.41-.39-.61-.92-.61-1.6Z"/>
  <rect class="st0" x="228.32" y="40.3" width="3.88" height="23.16"/>
  <path class="st0" d="M128.27,79.43c-.75.54-1.36,1.28-1.84,2.2v-2.85h-3.78v15.94h3.88v-10.49c.43-.84.99-1.48,1.67-1.91.68-.43,1.41-.65,2.18-.65.52,0,.96.06,1.33.17v-3.3h-.72c-1,0-1.91.3-2.72.89Z"/>
  <path class="st0" d="M146.42,79.47c-1.2-.68-2.58-1.02-4.12-1.02s-2.92.34-4.12,1.02c-1.2.68-2.14,1.65-2.81,2.89-.67,1.25-1,2.71-1,4.39s.33,3.12,1,4.38c.67,1.26,1.61,2.23,2.81,2.91,1.2.68,2.58,1.02,4.12,1.02s2.92-.34,4.12-1.02c1.2-.68,2.14-1.65,2.81-2.91.67-1.26,1-2.72,1-4.38s-.34-3.14-1-4.39c-.67-1.25-1.61-2.21-2.81-2.89ZM145.21,91.04c-.65,1.07-1.62,1.6-2.91,1.6s-2.26-.53-2.91-1.6c-.65-1.07-.97-2.5-.97-4.29s.32-3.25.97-4.31c.65-1.06,1.62-1.58,2.91-1.58s2.26.53,2.91,1.58c.65,1.06.97,2.49.97,4.31s-.32,3.22-.97,4.29Z"/>
  <path class="st0" d="M167.02,79.41c-.98-.65-2.05-.97-3.24-.97-1.41,0-2.59.32-3.54.97-.71.48-1.29,1.07-1.74,1.74v-9.59h-3.88v23.16h3.07l.55-2.4c.39.68.94,1.26,1.67,1.75.98.66,2.13.99,3.47.99,1.25,0,2.39-.32,3.42-.97,1.03-.65,1.86-1.59,2.47-2.84.61-1.25.92-2.75.92-4.5s-.28-3.25-.85-4.5c-.57-1.25-1.34-2.2-2.32-2.84ZM165.13,91.13c-.67,1.01-1.61,1.52-2.81,1.52-.91,0-1.71-.28-2.4-.83-.69-.56-1.16-1.28-1.41-2.16v-5.72c.34-.86.87-1.57,1.58-2.13.72-.56,1.5-.83,2.37-.83,1.16,0,2.06.49,2.71,1.46.65.98.97,2.42.97,4.33s-.34,3.37-1,4.38Z"/>
  <path class="st0" d="M185.26,79.47c-1.2-.68-2.58-1.02-4.12-1.02s-2.92.34-4.12,1.02c-1.2.68-2.14,1.65-2.81,2.89-.67,1.25-1,2.71-1,4.39s.33,3.12,1,4.38c.67,1.26,1.61,2.23,2.81,2.91,1.2.68,2.58,1.02,4.12,1.02s2.92-.34,4.12-1.02c1.2-.68,2.14-1.65,2.81-2.91.67-1.26,1-2.72,1-4.38s-.34-3.14-1-4.39c-.67-1.25-1.61-2.21-2.81-2.89ZM184.05,91.04c-.65,1.07-1.62,1.6-2.91,1.6s-2.26-.53-2.91-1.6c-.65-1.07-.97-2.5-.97-4.29s.32-3.25.97-4.31c.65-1.06,1.62-1.58,2.91-1.58s2.26.53,2.91,1.58c.65,1.06.97,2.49.97,4.31s-.32,3.22-.97,4.29Z"/>
  <path class="st0" d="M198.64,91.69c-.41-.45-.61-1.19-.61-2.21v-8.04h3.75v-2.66h-3.75v-4.63h-3.03l-.27,2.83c-.07.7-.2,1.18-.41,1.43-.2.25-.52.37-.95.37h-1.53v2.66h2.28v8.11c0,1.91.46,3.28,1.38,4.12.92.84,2.32,1.26,4.21,1.26.41,0,.84-.03,1.29-.08.45-.06.82-.13,1.09-.22v-2.42c-.48.11-1,.17-1.57.17-.84,0-1.46-.23-1.87-.68Z"/>
  <rect class="st0" x="206" y="78.78" width="3.88" height="15.94"/>
  <rect class="st0" x="205.9" y="72.72" width="4.05" height="3.92"/>
  <path class="st0" d="M219.96,81.59c.57-.49,1.28-.73,2.15-.73s1.6.31,2.15.92c.54.61.92,1.43,1.12,2.45h3.71c-.23-1.77-.97-3.18-2.21-4.22-1.25-1.04-2.86-1.57-4.84-1.57-1.52,0-2.87.34-4.05,1.02-1.18.68-2.1,1.65-2.76,2.89-.66,1.25-.99,2.71-.99,4.39s.33,3.12.99,4.38c.66,1.26,1.58,2.23,2.76,2.91,1.18.68,2.53,1.02,4.05,1.02,1.75,0,3.21-.44,4.39-1.31,1.18-.87,2.02-2.07,2.52-3.59l-3.13-.82c-.27.98-.72,1.77-1.35,2.38-.62.61-1.41.92-2.37.92-.89,0-1.61-.25-2.16-.75-.56-.5-.97-1.19-1.24-2.06s-.41-1.9-.41-3.08.14-2.24.41-3.12c.27-.87.69-1.55,1.26-2.04Z"/>
  <path class="st0" d="M243.97,86.72c-.9-.77-2.37-1.37-4.41-1.81-1.39-.29-2.36-.6-2.91-.92-.56-.32-.83-.76-.83-1.33,0-.61.25-1.1.75-1.46.5-.36,1.17-.55,2.01-.55s1.53.18,2.08.55c.55.36.96.89,1.26,1.57l2.93-.85c-.41-1.11-1.17-1.97-2.28-2.57-1.11-.6-2.41-.9-3.88-.9-1.18,0-2.24.2-3.17.6-.93.4-1.66.97-2.2,1.7-.53.74-.8,1.6-.8,2.57,0,1.39.48,2.47,1.43,3.25.95.78,2.46,1.38,4.53,1.79,1.34.27,2.26.57,2.76.9.5.33.75.8.75,1.41s-.27,1.15-.8,1.55c-.53.4-1.25.6-2.16.6-1,0-1.83-.21-2.5-.63-.67-.42-1.17-1.03-1.52-1.82l-2.96.89c.45,1.25,1.28,2.2,2.49,2.84,1.2.65,2.67.97,4.39.97,1.88,0,3.42-.47,4.61-1.4,1.19-.93,1.79-2.13,1.79-3.61s-.45-2.56-1.35-3.34Z"/>
  <path class="st0" d="M90.66,66.86l-15.75-15.75c-.61-.61-1.6-.61-2.22,0s-.61,1.6,0,2.22l15.75,15.75c.31.31.71.46,1.11.46s.8-.15,1.11-.46c.61-.61.61-1.6,0-2.22Z"/>
  <path class="st0" d="M68.62,51.11c-.61-.61-1.6-.61-2.22,0l-15.75,15.75c-.61.61-.61,1.6,0,2.22.31.31.71.46,1.11.46s.8-.15,1.11-.46l15.75-15.75c.61-.61.61-1.6,0-2.22Z"/>
  <path class="st0" d="M52.87,73.16c-.61-.61-1.6-.61-2.22,0-.61.61-.61,1.6,0,2.22l15.75,15.75c.31.31.71.46,1.11.46s.8-.15,1.11-.46c.61-.61.61-1.6,0-2.22l-15.75-15.75Z"/>
  <path class="st0" d="M88.45,73.16l-15.75,15.75c-.61.61-.61,1.6,0,2.22.31.31.71.46,1.11.46s.8-.15,1.11-.46l15.75-15.75c.61-.61.61-1.6,0-2.22s-1.6-.61-2.22,0Z"/>
</svg>